<?xml version="1.0" standalone="no"?>
<!DOCTYPE svg PUBLIC "-//W3C//DTD SVG 20010904//EN"
 "http://www.w3.org/TR/2001/REC-SVG-20010904/DTD/svg10.dtd">
<svg version="1.0" xmlns="http://www.w3.org/2000/svg"
 width="512.000000pt" height="512.000000pt" viewBox="0 0 512.000000 512.000000"
 preserveAspectRatio="xMidYMid meet">
<metadata>
Created by potrace 1.14, written by Peter Selinger 2001-2017
</metadata>
<g transform="translate(0.000000,512.000000) scale(0.100000,-0.100000)"
fill="#000000" stroke="none">
<path d="M2364 5022 c5 -9 -6 -12 -38 -12 -25 0 -49 -1 -53 -2 -62 -16 -144
-23 -154 -14 -9 8 -10 8 -5 -1 6 -12 -16 -19 -89 -27 -16 -2 -43 -8 -58 -15
-16 -6 -33 -9 -38 -5 -5 3 -9 1 -9 -4 0 -5 -6 -9 -12 -10 -7 0 -31 -5 -52 -11
-22 -5 -44 -7 -49 -4 -6 3 -7 1 -4 -4 8 -12 -20 -26 -33 -18 -5 3 -11 1 -15
-5 -4 -6 -11 -8 -16 -5 -5 4 -9 1 -9 -4 0 -6 -3 -10 -7 -10 -5 1 -11 0 -15 -1
-5 -1 -11 -3 -15 -4 -5 -1 -23 -10 -40 -19 -24 -13 -33 -14 -33 -5 0 9 -3 8
-10 -2 -5 -8 -13 -15 -17 -15 -4 -1 -22 -9 -40 -18 -18 -9 -39 -17 -47 -17 -8
0 -16 -4 -18 -8 -1 -5 -28 -21 -58 -36 -84 -42 -135 -70 -138 -79 -2 -4 -8 -5
-13 -1 -5 3 -9 1 -9 -3 0 -14 -59 -45 -72 -37 -6 4 -8 3 -5 -3 6 -10 -44 -53
-62 -53 -5 0 -12 -7 -15 -16 -4 -9 -13 -14 -22 -10 -8 3 -13 2 -9 -3 7 -13
-45 -52 -58 -44 -6 3 -7 1 -3 -5 4 -6 -4 -16 -16 -23 -13 -7 -29 -21 -37 -31
-7 -11 -19 -17 -27 -14 -8 3 -13 1 -11 -4 3 -12 -93 -101 -103 -95 -4 3 -7 -3
-6 -12 0 -10 -5 -18 -11 -18 -7 0 -13 -3 -13 -7 0 -5 -20 -28 -44 -52 -24 -25
-41 -48 -37 -52 3 -4 -2 -4 -12 -1 -11 4 -16 3 -12 -3 4 -6 -7 -24 -24 -40
-16 -17 -27 -30 -25 -30 3 0 -1 -6 -8 -14 -7 -8 -17 -11 -22 -8 -5 3 -6 0 -3
-5 6 -10 -17 -47 -50 -81 -7 -7 -13 -18 -13 -23 0 -6 -5 -7 -12 -3 -6 4 -8 3
-4 -4 3 -6 -1 -17 -9 -25 -8 -9 -15 -20 -15 -26 0 -6 -4 -11 -9 -11 -5 0 -13
-9 -16 -20 -4 -11 -11 -17 -17 -14 -6 4 -8 2 -5 -3 11 -18 -23 -75 -40 -68
-13 4 -14 3 -3 -10 9 -11 9 -15 1 -15 -7 0 -9 -4 -6 -10 3 -5 1 -10 -5 -10 -6
0 -8 -4 -5 -10 3 -5 -3 -17 -15 -27 -11 -10 -20 -23 -20 -29 0 -21 -27 -64
-35 -56 -5 4 -5 1 -1 -6 5 -8 0 -22 -11 -34 -10 -12 -13 -18 -6 -15 7 5 6 -4
-4 -23 -13 -27 -17 -29 -31 -18 -15 12 -15 11 -4 -4 11 -14 10 -27 -9 -80 -12
-35 -26 -67 -29 -73 -4 -5 -10 -27 -14 -48 -5 -24 -11 -35 -18 -31 -6 4 -8 3
-5 -3 9 -15 -12 -86 -31 -100 -9 -8 -11 -13 -4 -13 7 0 12 -7 12 -15 0 -8 -8
-15 -17 -15 -15 0 -16 -2 -3 -10 13 -8 12 -11 -5 -25 -11 -9 -14 -14 -7 -10 8
4 12 -1 12 -15 0 -12 -3 -19 -8 -16 -4 2 -7 -13 -6 -35 0 -21 -2 -39 -6 -39
-6 0 -11 -37 -11 -82 0 -10 -3 -18 -7 -18 -4 0 -8 -30 -9 -67 -1 -41 -7 -69
-15 -74 -10 -7 -10 -9 0 -9 6 0 12 -5 12 -11 0 -5 -4 -7 -10 -4 -5 3 -10 1
-10 -4 0 -6 4 -11 8 -11 8 0 9 -44 2 -60 -3 -6 0 -180 3 -232 1 -21 -2 -38 -8
-38 -7 0 -7 -3 0 -8 10 -7 17 -59 19 -135 1 -20 4 -37 8 -37 3 0 5 -8 4 -17
-2 -10 1 -31 6 -48 16 -52 16 -89 -1 -110 -10 -13 -10 -15 -1 -7 21 18 35 15
19 -5 -10 -11 -10 -14 -2 -9 7 4 13 6 14 4 0 -2 3 -23 5 -48 3 -25 11 -48 17
-52 9 -6 8 -8 -1 -8 -10 0 -9 -4 3 -16 12 -13 13 -19 4 -31 -7 -8 -8 -13 -3
-11 5 2 11 -1 13 -7 21 -60 34 -93 43 -109 8 -15 7 -18 -6 -13 -10 4 -13 1 -9
-8 3 -8 9 -13 13 -10 4 3 10 -4 13 -15 3 -10 0 -21 -7 -24 -6 -2 -3 -5 7 -5
11 -1 17 -9 17 -27 0 -17 4 -23 13 -18 6 4 9 3 4 -1 -4 -5 0 -19 9 -32 12 -20
13 -27 3 -39 -10 -12 -10 -15 1 -12 8 2 19 -7 25 -19 5 -13 13 -23 18 -23 4 0
3 -9 -3 -21 -7 -11 -9 -23 -6 -27 3 -3 6 0 6 6 0 24 27 0 40 -36 7 -20 16 -39
19 -42 19 -16 28 -47 18 -66 -9 -17 -9 -17 5 -6 11 9 18 10 23 2 3 -5 -1 -13
-9 -16 -9 -3 -16 -11 -16 -17 0 -7 4 -7 12 1 17 17 28 15 21 -5 -4 -11 -3 -14
5 -9 7 4 12 2 12 -4 0 -6 9 -20 20 -32 11 -12 20 -30 20 -40 0 -11 4 -17 9
-13 5 3 13 0 17 -6 5 -8 2 -10 -7 -5 -8 4 -6 1 4 -7 21 -18 22 -25 1 -23 -9 0
-19 -6 -21 -14 -3 -10 -2 -11 4 -4 15 20 46 11 62 -18 9 -15 20 -28 25 -28 5
0 3 -7 -4 -15 -7 -9 -10 -18 -6 -22 3 -3 6 -1 6 5 0 22 19 12 46 -24 23 -30
25 -37 13 -45 -10 -8 -9 -9 8 -4 16 4 26 -2 43 -25 12 -16 19 -33 16 -38 -2
-4 0 -14 6 -22 8 -12 9 -12 4 3 -6 19 1 21 23 8 10 -7 8 -12 -10 -25 -26 -18
-18 -22 11 -6 15 8 20 6 25 -10 3 -11 12 -20 19 -20 16 0 46 -32 46 -49 0 -7
-5 -9 -12 -5 -7 4 -8 3 -4 -5 6 -9 11 -9 21 -1 10 8 18 4 35 -17 12 -15 26
-28 30 -28 11 0 50 -41 50 -52 -1 -4 -10 3 -20 16 -11 13 -20 19 -20 13 0 -17
30 -42 44 -36 12 5 30 -28 27 -49 -1 -5 3 -6 8 -3 5 3 14 -1 21 -9 8 -10 17
-12 24 -6 7 6 17 5 27 -2 16 -12 19 -18 19 -37 0 -5 5 -10 11 -10 5 0 7 5 4
11 -4 6 2 5 14 -3 23 -14 28 -28 9 -28 -9 0 -8 -4 2 -10 20 -13 30 -12 30 1 0
5 -5 7 -12 3 -7 -5 -8 -3 -3 6 6 10 11 9 22 -5 16 -23 17 -39 1 -29 -7 5 -8 3
-4 -5 6 -9 13 -8 28 6 20 18 20 17 14 -3 -4 -15 -2 -24 8 -27 11 -4 13 -1 10
11 -4 10 -3 13 3 6 4 -6 16 -13 26 -17 24 -9 33 -37 16 -48 -10 -6 -8 -8 9 -6
17 1 21 6 16 22 -3 11 -2 15 3 9 4 -6 16 -13 26 -17 10 -4 16 -10 14 -15 -3
-4 1 -18 9 -32 7 -14 13 -21 14 -17 0 5 -5 17 -10 28 -7 13 -7 19 0 19 5 0 10
-4 10 -8 0 -4 10 -8 22 -9 11 -1 25 -8 29 -15 5 -7 16 -13 26 -13 12 0 17 -7
15 -18 -3 -16 0 -17 20 -6 l23 12 -20 -23 -20 -23 26 16 c25 17 39 14 39 -7 0
-6 -5 -4 -10 4 -5 8 -10 11 -10 5 0 -5 5 -17 10 -25 7 -11 10 -11 10 -2 0 7 4
10 10 7 6 -3 7 1 4 12 -5 17 -5 17 6 0 6 -9 15 -15 19 -12 5 2 14 -2 21 -10 7
-8 16 -12 21 -9 5 2 23 -3 41 -13 18 -9 42 -18 53 -20 10 -2 22 -8 26 -15 4
-6 12 -7 19 -3 9 6 11 4 5 -5 -6 -10 -4 -12 8 -7 10 3 17 2 17 -3 0 -5 11 -7
25 -4 15 2 25 0 25 -7 0 -6 7 -9 15 -6 8 4 17 2 20 -4 4 -5 11 -7 16 -4 5 4 9
1 9 -5 0 -6 4 -9 8 -6 5 3 21 -2 36 -10 34 -17 39 -18 30 -3 -3 6 7 4 22 -4
16 -8 37 -13 47 -12 10 2 14 -1 10 -8 -4 -6 0 -8 9 -4 9 3 21 0 27 -6 8 -8 11
-8 11 1 0 9 7 8 24 -3 16 -11 26 -13 31 -6 8 13 16 14 34 2 12 -8 13 -12 1
-26 -11 -14 -11 -16 1 -13 8 2 13 -2 12 -7 -1 -6 7 -11 18 -11 19 0 19 1 -2
17 -22 16 -22 17 -3 27 11 6 26 7 33 3 7 -5 30 -8 52 -7 28 2 39 -2 39 -13 0
-8 -3 -11 -7 -8 -3 4 -12 2 -20 -4 -9 -9 -13 -8 -13 0 0 6 -5 11 -12 11 -7 0
-5 -7 6 -18 14 -13 20 -14 23 -4 4 10 8 10 21 0 9 -7 13 -8 9 -2 -3 6 3 19 15
28 18 16 20 16 15 2 -6 -16 -2 -18 28 -18 30 0 36 2 29 14 -5 7 -3 8 7 2 18
-11 41 -12 55 -2 7 5 17 1 25 -9 9 -11 10 -14 2 -9 -7 4 -13 2 -13 -3 0 -16
20 -13 26 3 3 8 18 12 37 11 18 -1 37 2 44 7 7 5 14 5 18 -2 5 -8 11 -8 21 1
8 6 14 10 15 8 0 -2 2 -12 4 -22 2 -11 7 -22 11 -25 4 -4 4 1 1 10 -5 13 -1
18 14 18 13 0 18 4 13 13 -6 9 -4 9 8 -1 11 -9 18 -10 23 -2 3 5 13 10 21 10
11 0 13 -6 9 -21 -6 -19 -5 -20 8 -8 8 8 12 19 9 24 -3 6 -2 7 3 3 4 -4 17 -3
28 3 14 8 18 8 13 0 -4 -6 0 -11 9 -11 9 0 14 4 11 9 -4 5 2 8 11 6 10 -2 24
-4 31 -4 7 -1 10 -7 7 -14 -3 -6 2 -2 11 10 17 24 34 30 34 12 0 -5 -6 -7 -12
-3 -7 4 -10 4 -6 -1 4 -4 2 -15 -5 -24 -10 -14 -10 -14 4 -4 9 7 20 9 24 5 5
-4 5 -1 1 6 -5 8 0 12 13 12 12 0 21 4 21 10 0 5 -8 7 -17 3 -10 -3 -15 -3
-12 1 8 8 54 18 91 19 15 0 25 5 21 10 -3 5 4 4 15 -2 12 -6 24 -16 27 -22 5
-7 12 -6 22 3 9 7 18 12 19 11 10 -7 34 11 30 22 -4 11 36 26 69 26 2 0 16 6
31 13 14 8 33 13 42 12 9 -2 22 3 29 10 7 7 21 11 30 10 10 -2 24 3 31 11 8 7
18 11 23 8 5 -4 9 -1 9 5 0 7 5 6 14 -2 8 -7 12 -16 10 -19 -2 -3 3 -6 11 -6
8 0 13 3 10 5 -3 3 3 15 12 26 14 15 14 18 2 8 -9 -6 -20 -8 -24 -4 -5 4 -5 1
0 -7 6 -10 4 -12 -4 -7 -12 8 -7 21 7 21 4 1 17 6 30 13 12 7 22 9 22 5 0 -4
5 -2 11 4 6 6 18 9 27 6 11 -5 13 -3 7 8 -5 8 2 5 16 -6 18 -16 21 -16 10 -2
-16 21 -10 29 21 31 14 1 22 7 20 15 -2 10 5 9 25 -4 21 -14 25 -14 15 -3 -10
13 -8 18 14 33 15 9 23 12 20 6 -4 -6 -2 -11 4 -11 6 0 8 -5 4 -12 -4 -6 -3
-8 4 -5 5 4 8 16 5 27 -4 16 -2 19 11 14 9 -3 13 -10 10 -15 -3 -5 0 -9 5 -9
14 0 14 13 -1 28 -7 7 -8 12 -2 12 6 0 15 -5 22 -12 9 -9 11 -6 7 10 -2 14 1
22 10 22 9 0 11 -8 8 -22 -3 -13 -3 -20 0 -17 4 3 8 14 10 26 1 11 11 28 20
37 19 20 23 7 5 -14 -7 -8 -3 -6 9 4 13 10 20 23 16 29 -3 5 -1 7 5 3 6 -3 14
-1 17 4 5 8 13 6 24 -4 15 -14 18 -14 18 -1 0 8 -4 12 -9 9 -4 -3 -8 2 -8 10
0 8 5 18 12 22 6 4 8 3 5 -3 -4 -6 0 -14 9 -17 12 -5 14 -1 8 16 -6 21 -5 22
11 8 15 -12 17 -12 10 -1 -6 11 -4 13 10 7 16 -6 16 -4 4 11 -12 15 -12 16 2
11 9 -4 20 2 27 13 12 19 37 25 45 12 2 -5 2 -2 0 5 -4 18 97 111 114 105 9
-3 11 0 7 10 -6 17 28 33 48 21 10 -5 10 -4 1 6 -9 10 -9 16 2 26 18 19 31 18
15 -1 -7 -8 -8 -15 -4 -15 5 0 15 9 22 21 7 12 16 18 19 15 3 -3 0 -14 -8 -23
-12 -17 -12 -17 5 -1 22 19 12 46 -10 27 -10 -8 -14 -8 -14 0 0 6 3 11 8 11 4
0 24 16 44 35 37 36 55 45 42 23 -5 -9 -2 -9 9 1 18 14 22 22 10 20 -22 -4
-22 3 -1 24 27 28 80 62 90 59 4 -1 5 5 2 13 -5 12 -10 10 -26 -8 -17 -19 -18
-19 -9 -2 14 31 58 68 70 60 6 -3 8 -12 5 -18 -4 -7 -3 -8 1 -4 11 9 16 37 7
36 -18 -3 -22 2 -10 15 10 10 15 11 21 2 5 -6 7 -2 4 12 -4 14 0 25 8 29 8 2
17 14 20 24 5 14 10 17 18 10 9 -7 12 -1 13 19 1 36 39 83 84 103 19 9 27 16
18 16 -9 1 -20 -3 -23 -9 -3 -5 -12 -10 -18 -9 -9 0 -9 2 1 6 6 2 12 10 12 18
0 7 7 18 15 25 8 7 13 16 10 20 -8 13 29 37 52 35 12 -1 20 2 17 7 -4 5 -12 7
-20 4 -8 -3 -14 -2 -14 3 0 9 50 103 59 111 3 3 6 10 7 15 1 19 28 75 36 75 4
0 10 -4 13 -10 8 -14 25 -13 25 2 0 6 -3 8 -7 5 -12 -13 -32 14 -24 31 11 21
34 75 37 85 1 4 3 9 4 12 3 7 7 23 9 36 0 6 8 9 16 5 12 -4 13 -2 7 12 -11 20
-5 43 16 58 17 13 25 44 11 44 -5 0 -9 5 -9 11 0 5 4 8 9 5 5 -3 12 1 15 10 3
8 2 12 -3 9 -6 -3 -6 7 0 27 5 18 9 34 9 36 0 2 4 1 8 -2 4 -2 8 4 8 14 0 10
-4 16 -8 14 -4 -3 -8 0 -8 5 0 6 5 11 11 11 6 0 9 7 6 15 -4 8 -2 17 3 20 5 3
7 12 3 20 -3 8 -1 15 3 15 8 0 12 18 14 73 1 11 6 15 13 10 7 -4 5 2 -3 12
-14 17 -13 18 5 11 16 -6 18 -5 8 5 -7 7 -13 17 -13 22 0 4 6 5 13 1 7 -5 6 0
-3 11 -9 11 -10 16 -2 11 6 -4 12 -3 12 3 0 5 -6 12 -12 14 -10 4 -10 6 -1 6
7 1 10 8 6 18 -4 11 -3 14 5 9 9 -5 9 -1 0 19 -11 24 -10 29 7 41 10 8 14 14
8 14 -5 0 -9 17 -8 37 1 23 7 37 14 36 6 -2 11 2 11 7 0 6 -6 10 -14 10 -9 0
-12 8 -8 25 2 15 9 22 16 18 8 -5 8 -3 -1 8 -12 16 -14 101 -1 93 4 -3 8 0 8
5 0 6 -4 11 -10 11 -17 0 -11 42 8 56 16 13 16 14 -1 8 -15 -5 -17 -1 -14 35
2 23 0 41 -3 41 -9 0 -6 32 5 49 5 10 4 12 -3 7 -7 -4 -12 -1 -12 8 0 9 6 16
13 16 8 0 9 3 1 8 -6 4 -14 22 -17 41 -6 31 -6 32 11 20 14 -11 15 -11 5 0 -6
7 -9 21 -6 30 4 12 3 13 -5 3 -8 -11 -10 -11 -15 1 -3 7 -1 20 3 28 5 7 5 18
1 24 -12 14 -30 101 -33 152 -1 18 -4 30 -8 28 -4 -2 -7 1 -7 8 0 7 -3 23 -6
37 -6 27 -13 56 -19 80 -1 8 -7 18 -13 22 -6 5 -4 8 5 8 13 0 13 2 1 9 -8 5
-15 17 -17 28 -1 10 -5 27 -9 38 -3 11 -5 24 -5 29 1 5 -3 12 -8 15 -6 3 -12
15 -14 26 -1 11 -6 22 -9 25 -13 12 -39 92 -33 103 4 7 4 9 -1 5 -9 -8 -35 36
-35 58 0 8 -4 14 -10 14 -14 0 -12 27 3 34 6 3 3 4 -8 3 -12 -1 -19 3 -17 11
1 6 -3 12 -9 12 -5 0 -7 5 -4 10 3 6 1 10 -6 10 -8 0 -8 4 1 15 11 13 10 14
-6 9 -10 -4 -16 -4 -12 1 4 4 0 14 -8 22 -8 9 -12 23 -9 31 3 9 3 13 -1 10 -8
-8 -32 22 -59 75 -11 20 -24 37 -29 37 -5 0 -7 3 -3 6 3 4 1 12 -6 20 -42 47
-77 101 -70 108 3 3 0 6 -9 6 -8 0 -21 12 -29 27 -8 14 -29 42 -47 60 -18 19
-30 38 -27 44 4 5 1 8 -7 7 -7 -2 -12 3 -10 10 1 8 -1 11 -6 8 -10 -6 -43 30
-35 38 4 3 0 6 -7 6 -14 0 -50 37 -50 52 0 5 -5 6 -12 2 -8 -5 -9 -2 -5 10 4
9 3 15 -2 12 -12 -8 -52 34 -45 46 5 7 2 8 -5 3 -14 -8 -63 33 -55 47 3 5 2 7
-3 6 -14 -4 -54 23 -48 33 4 5 3 8 -2 7 -13 -4 -54 28 -45 36 4 4 3 6 -3 5
-15 -5 -86 47 -77 56 4 5 2 5 -4 2 -7 -4 -17 0 -24 8 -7 8 -19 15 -26 15 -8 0
-14 4 -14 9 0 5 -14 14 -30 21 -17 7 -34 18 -38 24 -4 6 -33 25 -64 41 -32 17
-58 34 -58 38 0 5 -4 6 -9 2 -5 -3 -16 1 -24 9 -8 8 -17 12 -21 9 -3 -4 -6 -1
-6 6 0 7 -4 9 -10 6 -5 -3 -10 -1 -10 4 0 6 -9 11 -20 11 -11 0 -20 5 -20 10
0 6 -7 10 -15 10 -8 0 -30 9 -50 20 -19 11 -38 20 -43 20 -20 1 -42 13 -37 21
3 5 -1 6 -10 3 -8 -4 -23 0 -32 7 -9 8 -18 13 -20 12 -8 -7 -34 -2 -29 5 2 4
-5 9 -17 9 -12 1 -40 9 -62 17 -22 8 -52 17 -67 20 -15 2 -32 7 -38 11 -6 4
-23 9 -37 11 -15 3 -31 11 -35 17 -6 9 -8 9 -8 -1 0 -10 -5 -10 -22 -1 -12 6
-38 13 -57 14 -20 1 -36 3 -36 5 0 2 -19 5 -80 14 -92 14 -118 16 -290 21 -99
3 -190 7 -202 9 -13 2 -23 0 -23 -5 0 -9 -33 -4 -52 7 -7 4 -8 3 -4 -4z m2551
-3211 c3 -5 1 -12 -5 -16 -5 -3 -10 1 -10 9 0 18 6 21 15 7z m-3895 -1171 c0
-5 6 -10 13 -10 8 0 14 -7 14 -15 0 -19 1 -19 -27 10 -13 14 -18 25 -12 25 7
0 12 -4 12 -10z m2136 -486 c-4 -9 -9 -14 -13 -11 -3 4 -12 2 -18 -3 -9 -8
-14 -6 -19 5 -3 9 -2 13 4 10 6 -3 10 -1 10 6 0 8 4 8 15 -1 12 -10 15 -9 15
5 0 10 3 16 6 12 4 -3 4 -14 0 -23z m-746 -52 c0 -5 -7 -9 -15 -9 -8 0 -12 4
-9 9 3 4 9 8 15 8 5 0 9 -4 9 -8z"/>
<path d="M5035 2691 c-3 -5 -2 -12 3 -15 5 -3 9 1 9 9 0 17 -3 19 -12 6z"/>
<path d="M70 2499 c0 -5 5 -7 10 -4 6 3 10 8 10 11 0 2 -4 4 -10 4 -5 0 -10
-5 -10 -11z"/>
<path d="M5040 2440 c-9 -6 -10 -10 -3 -10 6 0 15 5 18 10 8 12 4 12 -15 0z"/>
<path d="M69 2403 c-13 -16 -12 -17 4 -4 9 7 17 15 17 17 0 8 -8 3 -21 -13z"/>
<path d="M95 2280 c3 -5 8 -10 11 -10 2 0 4 5 4 10 0 6 -5 10 -11 10 -5 0 -7
-4 -4 -10z"/>
<path d="M5015 2280 c3 -5 8 -10 11 -10 2 0 4 5 4 10 0 6 -5 10 -11 10 -5 0
-7 -4 -4 -10z"/>
<path d="M100 2200 c0 -5 5 -10 11 -10 5 0 7 5 4 10 -3 6 -8 10 -11 10 -2 0
-4 -4 -4 -10z"/>
<path d="M4995 2089 c-4 -6 -5 -12 -2 -15 2 -3 7 2 10 11 7 17 1 20 -8 4z"/>
<path d="M4975 2020 c3 -5 8 -10 11 -10 2 0 4 5 4 10 0 6 -5 10 -11 10 -5 0
-7 -4 -4 -10z"/>
<path d="M180 1840 c0 -5 5 -10 11 -10 5 0 7 5 4 10 -3 6 -8 10 -11 10 -2 0
-4 -4 -4 -10z"/>
<path d="M204 1779 c-3 -6 -2 -15 3 -20 5 -5 9 -1 9 11 0 23 -2 24 -12 9z"/>
<path d="M4906 1758 c3 -5 10 -6 15 -3 13 9 11 12 -6 12 -8 0 -12 -4 -9 -9z"/>
<path d="M4845 1600 c3 -5 8 -10 11 -10 2 0 4 5 4 10 0 6 -5 10 -11 10 -5 0
-7 -4 -4 -10z"/>
<path d="M295 1521 c-3 -5 0 -13 6 -17 7 -4 9 -3 5 4 -3 5 0 13 6 15 9 4 10 6
1 6 -6 1 -14 -3 -18 -8z"/>
<path d="M4775 1440 c3 -5 8 -10 11 -10 2 0 4 5 4 10 0 6 -5 10 -11 10 -5 0
-7 -4 -4 -10z"/>
<path d="M335 1420 c-4 -6 -3 -10 2 -9 20 4 32 -2 36 -18 4 -17 5 -17 6 -1 1
21 -35 43 -44 28z"/>
<path d="M4755 1421 c-3 -5 -2 -12 3 -15 5 -3 9 1 9 9 0 17 -3 19 -12 6z"/>
<path d="M377 1350 c-3 -11 -3 -20 -1 -20 2 0 8 9 14 20 6 11 7 20 2 20 -6 0
-12 -9 -15 -20z"/>
<path d="M4685 1310 c-3 -6 1 -7 9 -4 18 7 21 14 7 14 -6 0 -13 -4 -16 -10z"/>
<path d="M4691 1287 c-8 -10 -7 -14 2 -14 8 0 14 6 14 14 0 7 -1 13 -2 13 -2
0 -8 -6 -14 -13z"/>
<path d="M475 1210 c-3 -5 -1 -10 4 -10 6 0 11 5 11 10 0 6 -2 10 -4 10 -3 0
-8 -4 -11 -10z"/>
<path d="M4630 1200 c0 -5 5 -10 10 -10 6 0 10 5 10 10 0 6 -4 10 -10 10 -5 0
-10 -4 -10 -10z"/>
<path d="M4603 1175 c-16 -18 -16 -22 0 -22 7 0 14 9 14 19 2 21 2 21 -14 3z"/>
<path d="M4591 1124 c0 -11 3 -14 6 -6 3 7 2 16 -1 19 -3 4 -6 -2 -5 -13z"/>
<path d="M548 1103 c10 -4 10 -8 0 -21 -11 -15 -11 -15 3 -5 9 7 20 9 25 5 4
-4 2 1 -5 11 -7 9 -19 17 -25 16 -6 0 -6 -3 2 -6z"/>
<path d="M4553 1085 c0 -8 4 -12 9 -9 5 3 6 10 3 15 -9 13 -12 11 -12 -6z"/>
<path d="M614 1021 c0 -11 5 -17 13 -14 10 4 11 9 2 19 -15 18 -15 18 -15 -5z"/>
<path d="M640 991 c0 -7 -5 -9 -12 -5 -7 5 -8 3 -3 -5 5 -9 10 -10 18 -2 6 6
8 14 4 18 -4 3 -7 1 -7 -6z"/>
<path d="M4460 985 c-7 -9 -8 -15 -2 -15 5 0 12 7 16 15 3 8 4 15 2 15 -2 0
-9 -7 -16 -15z"/>
<path d="M675 950 c-5 -8 -4 -11 2 -7 12 8 26 -20 18 -33 -3 -5 0 -12 6 -16 7
-4 9 -3 5 4 -3 5 -2 12 3 14 6 1 2 14 -8 27 -14 18 -20 21 -26 11z"/>
<path d="M650 941 c0 -6 4 -13 10 -16 6 -3 7 1 4 9 -7 18 -14 21 -14 7z"/>
<path d="M4375 890 c-3 -5 -1 -18 5 -27 9 -15 10 -14 4 6 -4 17 -3 21 6 16 9
-5 11 -4 6 3 -9 15 -13 15 -21 2z"/>
<path d="M793 804 c0 -17 14 -18 20 -1 4 10 6 10 6 0 1 -7 6 -13 13 -13 9 0 9
3 0 12 -17 17 -39 18 -39 2z"/>
<path d="M4299 793 c-13 -16 -12 -17 4 -4 9 7 17 15 17 17 0 8 -8 3 -21 -13z"/>
<path d="M860 766 c0 -2 8 -10 18 -17 15 -13 16 -12 3 4 -13 16 -21 21 -21 13z"/>
<path d="M840 746 c0 -2 7 -7 16 -10 8 -3 12 -2 9 4 -6 10 -25 14 -25 6z"/>
<path d="M890 722 c0 -15 28 -23 36 -9 4 7 4 9 -1 5 -4 -4 -14 -3 -22 3 -8 7
-13 8 -13 1z"/>
<path d="M4190 700 c0 -5 5 -10 10 -10 6 0 10 5 10 10 0 6 -4 10 -10 10 -5 0
-10 -4 -10 -10z"/>
<path d="M4147 673 c-13 -12 -7 -22 12 -20 15 1 17 4 9 14 -12 15 -13 15 -21
6z"/>
<path d="M4112 638 c-7 -7 -12 -16 -12 -21 0 -5 7 -1 16 8 9 9 14 18 12 20 -2
3 -10 -1 -16 -7z"/>
<path d="M4076 611 c-3 -5 1 -11 9 -14 9 -4 12 -1 8 9 -6 16 -10 17 -17 5z"/>
<path d="M1064 592 c3 -5 0 -13 -6 -15 -9 -4 -10 -6 -1 -6 17 -1 25 16 12 25
-7 4 -9 3 -5 -4z"/>
<path d="M4019 553 c-13 -16 -12 -17 4 -4 16 13 21 21 13 21 -2 0 -10 -8 -17
-17z"/>
<path d="M3880 460 c-6 -11 -8 -20 -6 -20 3 0 10 9 16 20 6 11 8 20 6 20 -3 0
-10 -9 -16 -20z"/>
<path d="M1250 456 c0 -2 7 -9 15 -16 13 -11 14 -10 9 4 -5 14 -24 23 -24 12z"/>
<path d="M1190 445 c0 -7 30 -13 34 -7 3 4 -4 9 -15 9 -10 1 -19 0 -19 -2z"/>
<path d="M3895 440 c-3 -5 -1 -10 4 -10 6 0 11 5 11 10 0 6 -2 10 -4 10 -3 0
-8 -4 -11 -10z"/>
<path d="M3850 419 c0 -5 5 -7 10 -4 6 3 10 8 10 11 0 2 -4 4 -10 4 -5 0 -10
-5 -10 -11z"/>
<path d="M1322 400 c0 -14 2 -19 5 -12 2 6 2 18 0 25 -3 6 -5 1 -5 -13z"/>
<path d="M1383 367 c0 -12 1 -16 4 -9 7 18 21 15 26 -5 4 -17 5 -17 6 -1 0 10
-7 22 -17 27 -15 8 -18 5 -19 -12z"/>
<path d="M3696 362 c-2 -4 -1 -14 4 -22 7 -11 9 -9 7 8 -1 24 -3 26 -11 14z"/>
<path d="M1436 337 c3 -10 9 -15 12 -12 3 3 0 11 -7 18 -10 9 -11 8 -5 -6z"/>
<path d="M3610 320 c0 -5 5 -10 11 -10 5 0 7 5 4 10 -3 6 -8 10 -11 10 -2 0
-4 -4 -4 -10z"/>
<path d="M3650 319 c0 -5 5 -7 10 -4 6 3 10 8 10 11 0 2 -4 4 -10 4 -5 0 -10
-5 -10 -11z"/>
<path d="M1490 300 c0 -5 5 -10 11 -10 5 0 7 5 4 10 -3 6 -8 10 -11 10 -2 0
-4 -4 -4 -10z"/>
<path d="M1558 293 c-9 -2 -19 -11 -22 -20 -5 -13 -4 -13 8 -4 7 6 21 9 30 5
9 -3 16 -1 16 4 0 14 -11 19 -32 15z"/>
<path d="M3536 285 c-11 -8 -15 -15 -9 -15 6 0 16 7 23 15 16 19 11 19 -14 0z"/>
<path d="M3573 275 c0 -8 4 -12 9 -9 4 3 8 9 8 15 0 5 -4 9 -8 9 -5 0 -9 -7
-9 -15z"/>
<path d="M1615 269 c-4 -6 -4 -13 -1 -16 3 -4 6 0 6 8 1 10 4 9 11 -4 5 -9 7
-23 4 -30 -4 -6 0 -4 8 6 16 20 32 23 21 5 -4 -7 -4 -10 1 -6 4 4 14 3 22 -4
10 -8 17 -8 26 1 9 10 8 11 -7 5 -14 -5 -17 -4 -12 5 4 6 4 10 -1 9 -4 -1 -22
6 -40 15 -21 11 -34 13 -38 6z"/>
<path d="M3409 229 c-8 -16 -8 -20 0 -14 7 4 20 1 29 -6 15 -12 15 -12 -1 7
-9 11 -14 24 -10 27 3 4 3 7 0 7 -3 0 -11 -10 -18 -21z"/>
<path d="M3349 214 c-6 -7 -19 -11 -30 -9 -11 2 -17 0 -14 -6 4 -5 10 -7 15
-4 4 3 11 -1 13 -7 4 -10 6 -10 6 -1 1 7 7 11 14 9 6 -1 9 -1 4 1 -4 3 -4 9
-1 15 3 5 15 2 27 -9 15 -12 18 -13 9 -2 -6 9 -10 18 -7 21 3 2 -2 5 -10 5 -8
0 -20 -6 -26 -13z"/>
<path d="M1712 211 c-11 -7 -10 -9 3 -14 9 -4 14 -3 10 2 -3 5 1 12 7 14 7 3
9 6 3 6 -5 0 -16 -3 -23 -8z"/>
<path d="M1791 204 c-1 -6 5 -16 12 -22 10 -8 13 -6 14 11 2 15 0 18 -6 8 -7
-11 -9 -11 -14 0 -3 8 -6 9 -6 3z"/>
<path d="M1843 193 c-7 -3 -13 -10 -13 -15 0 -6 3 -8 7 -5 3 4 12 -1 20 -11
12 -16 13 -16 7 1 -5 13 -2 16 10 11 9 -3 13 -11 9 -18 -4 -7 -1 -7 9 1 8 7
19 9 23 5 5 -4 5 -1 1 6 -5 7 -11 11 -14 8 -3 -4 -15 0 -26 7 -12 8 -27 12
-33 10z"/>
<path d="M3266 192 c-2 -4 0 -14 6 -22 8 -12 9 -12 4 3 -3 9 -1 17 4 17 6 0
10 -4 10 -10 0 -5 5 -10 11 -10 8 0 8 5 -1 15 -14 17 -26 19 -34 7z"/>
<path d="M3236 183 c-4 -5 -12 -9 -17 -9 -5 -1 -13 -2 -17 -3 -5 0 -9 -8 -9
-17 0 -15 1 -15 12 0 7 8 14 13 17 11 3 -3 11 1 18 10 13 15 10 21 -4 8z"/>
<path d="M1930 161 c0 -5 7 -12 16 -15 8 -3 12 -11 8 -17 -5 -8 -3 -9 5 -5 9
6 8 13 -5 27 -19 21 -24 23 -24 10z"/>
<path d="M1978 153 c6 -2 10 -9 7 -14 -4 -5 1 -6 10 -2 13 5 14 7 3 14 -7 5
-17 8 -23 8 -5 0 -4 -3 3 -6z"/>
<path d="M2024 142 c3 -5 1 -12 -6 -14 -8 -3 -9 -6 -1 -11 6 -4 13 0 17 8 3 8
0 17 -6 21 -6 4 -8 3 -4 -4z"/>
<path d="M3230 139 c0 -5 5 -7 10 -4 6 3 10 8 10 11 0 2 -4 4 -10 4 -5 0 -10
-5 -10 -11z"/>
<path d="M2059 138 c-8 -27 -5 -36 9 -30 10 4 12 7 4 10 -7 2 -10 8 -6 13 3 5
3 9 0 9 -3 0 -6 -1 -7 -2z"/>
<path d="M3017 125 c-12 -11 -17 -12 -21 -2 -2 6 -4 2 -2 -10 1 -12 5 -25 9
-28 4 -3 5 -2 2 2 -8 10 16 33 28 26 6 -3 7 -1 3 5 -4 7 -2 12 3 12 10 0 15
-14 12 -33 -1 -5 3 -6 9 -2 7 4 7 12 0 26 -13 23 -24 24 -43 4z"/>
<path d="M3070 136 c0 -2 8 -10 18 -17 15 -13 16 -12 3 4 -13 16 -21 21 -21
13z"/>
<path d="M2090 120 c0 -5 5 -10 11 -10 5 0 7 5 4 10 -3 6 -8 10 -11 10 -2 0
-4 -4 -4 -10z"/>
<path d="M2149 128 c0 -2 -2 -11 -4 -21 -3 -15 -1 -16 11 -6 16 13 19 29 4 29
-5 0 -10 -1 -11 -2z"/>
<path d="M2116 103 c-6 -14 -5 -15 5 -6 7 7 10 15 7 18 -3 3 -9 -2 -12 -12z"/>
<path d="M2214 108 c-4 -7 -3 -8 4 -4 7 4 12 2 12 -4 0 -6 4 -9 9 -6 5 4 11 1
13 -6 3 -7 7 -4 12 7 4 11 4 16 0 13 -4 -4 -15 -3 -25 2 -12 7 -20 6 -25 -2z"/>
<path d="M2860 100 c0 -5 5 -10 11 -10 5 0 7 5 4 10 -3 6 -8 10 -11 10 -2 0
-4 -4 -4 -10z"/>
<path d="M2480 85 c-7 -9 -8 -15 -2 -15 5 0 12 7 16 15 3 8 4 15 2 15 -2 0 -9
-7 -16 -15z"/>
<path d="M2605 91 c-3 -6 -10 -9 -14 -7 -4 3 -8 -1 -8 -8 0 -12 16 -14 37 -6
3 1 8 2 12 2 3 -1 12 6 20 16 11 15 11 16 -3 5 -11 -9 -19 -9 -26 -2 -8 8 -13
8 -18 0z"/>
<path d="M2735 90 c-4 -6 -11 -8 -16 -5 -5 4 -9 2 -9 -4 0 -5 8 -9 18 -8 10 0
19 7 19 14 0 16 -4 16 -12 3z"/>
<path d="M2812 86 c7 -8 15 -12 17 -11 5 6 -10 25 -20 25 -5 0 -4 -6 3 -14z"/>
<path d="M2350 80 c0 -5 5 -10 11 -10 5 0 7 5 4 10 -3 6 -8 10 -11 10 -2 0 -4
-4 -4 -10z"/>
<path d="M2431 78 c-1 -21 15 -32 25 -17 4 7 3 9 -4 5 -6 -3 -13 2 -15 11 -4
16 -5 16 -6 1z"/>
<path d="M2540 75 c-7 -9 -10 -18 -6 -22 3 -3 6 -1 6 5 0 7 5 11 11 10 6 -2
14 3 16 10 6 17 -12 15 -27 -3z"/>
<path d="M2790 69 c0 -5 5 -7 10 -4 6 3 10 8 10 11 0 2 -4 4 -10 4 -5 0 -10
-5 -10 -11z"/>
</g>
</svg>
